<?xml version="1.0" encoding="utf-8"?>
<svg width="21px" height="21px" viewBox="0 0 21 21" version="1.1" xmlns:xlink="http://www.w3.org/1999/xlink" xmlns="http://www.w3.org/2000/svg">
  <path d="M16.5 14L16.5 17L13.5 17L13.5 14L16.5 14ZM18 12.5L12 12.5L12 18.5L18 18.5L18 12.5ZM24 14L24 17L21 17L21 14L24 14ZM25.5 12.5L19.5 12.5L19.5 18.5L25.5 18.5L25.5 12.5ZM31.5 14L31.5 17L28.5 17L28.5 14L31.5 14ZM33 12.5L27 12.5L27 18.5L33 18.5L33 12.5ZM16.5 21.5L16.5 24.5L13.5 24.5L13.5 21.5L16.5 21.5ZM18 20L12 20L12 26L18 26L18 20ZM24 21.5L24 24.5L21 24.5L21 21.5L24 21.5ZM25.5 20L19.5 20L19.5 26L25.5 26L25.5 20ZM31.5 21.5L31.5 24.5L28.5 24.5L28.5 21.5L31.5 21.5ZM33 20L27 20L27 26L33 26L33 20ZM16.5 29L16.5 32L13.5 32L13.5 29L16.5 29ZM18 27.5L12 27.5L12 33.5L18 33.5L18 27.5ZM24 29L24 32L21 32L21 29L24 29ZM25.5 27.5L19.5 27.5L19.5 33.5L25.5 33.5L25.5 27.5ZM31.5 29L31.5 32L28.5 32L28.5 29L31.5 29ZM33 27.5L27 27.5L27 33.5L33 33.5L33 27.5Z" id="Fill" fill="#FFFFFF" fill-rule="evenodd" stroke="none" />
</svg>