<?xml version="1.0" encoding="utf-8"?>
<svg width="24px" height="24px" viewBox="0 0 24 24" version="1.1" xmlns:xlink="http://www.w3.org/1999/xlink" xmlns="http://www.w3.org/2000/svg">
  <path d="M68 17L78.5 17L78.5 18.5L68 18.5L68 17ZM68 27.5L78.5 27.5L78.5 29L68 29L68 27.5ZM63.5 21.5L59 21.5C58.172 21.499 57.5009 20.828 57.5 20L57.5 15.5C57.5009 14.672 58.172 14.0009 59 14L63.5 14C64.328 14.0009 64.9991 14.672 65 15.5L65 20C64.9991 20.828 64.328 21.499 63.5 21.5ZM59 15.5L59 20L63.5009 20L63.5 15.5L59 15.5ZM63.5 32L59 32C58.172 31.999 57.5009 31.328 57.5 30.5L57.5 26C57.5009 25.172 58.172 24.5009 59 24.5L63.5 24.5C64.328 24.5009 64.9991 25.172 65 26L65 30.5C64.9991 31.328 64.328 31.999 63.5 32ZM59 26L59 30.5L63.5009 30.5L63.5 26L59 26Z" id="Fill" fill="#000000" fill-rule="evenodd" stroke="none" />
</svg>