<?xml version="1.0" encoding="utf-8"?>
<svg width="20px" height="22px" viewBox="0 0 20 22" version="1.1" xmlns:xlink="http://www.w3.org/1999/xlink" xmlns="http://www.w3.org/2000/svg">
  <path d="M289.25 26C288.113 26.0057 287.04 26.5271 286.333 27.4175L280.85 23.99C281.05 23.3451 281.05 22.6549 280.85 22.01L286.333 18.5825C287.481 20.0052 289.489 20.3917 291.084 19.4972C292.679 18.6028 293.396 16.6882 292.782 14.9659C292.167 13.2436 290.4 12.2158 288.599 12.5334C286.798 12.851 285.489 14.4213 285.5 16.25C285.504 16.5854 285.554 16.9186 285.65 17.24L280.168 20.6675C279.175 19.4186 277.502 18.9339 275.996 19.4593C274.49 19.9846 273.481 21.4051 273.481 23C273.481 24.595 274.49 26.0154 275.996 26.5408C277.502 27.0661 279.175 26.5814 280.168 25.3325L285.65 28.76C285.554 29.0814 285.504 29.4146 285.5 29.75C285.5 31.8211 287.179 33.5 289.25 33.5C291.321 33.5 293 31.8211 293 29.75C293 27.679 291.321 26 289.25 26ZM289.25 14C290.493 14 291.5 15.0074 291.5 16.25C291.5 17.4926 290.493 18.5 289.25 18.5C288.007 18.5 287 17.4926 287 16.25C287 15.0074 288.007 14 289.25 14ZM277.25 25.25C276.007 25.25 275 24.2426 275 23C275 21.7574 276.007 20.75 277.25 20.75C278.493 20.75 279.5 21.7574 279.5 23C279.5 24.2426 278.493 25.25 277.25 25.25L277.25 25.25ZM289.25 32C288.007 32 287 30.9926 287 29.75C287 28.5074 288.007 27.5 289.25 27.5C290.493 27.5 291.5 28.5074 291.5 29.75C291.5 30.9926 290.493 32 289.25 32L289.25 32Z" id="Fill" fill="#FFFFFF" fill-rule="evenodd" stroke="none" />
</svg>